<svg width="76" height="91" viewBox="0 0 76 91" fill="none" xmlns="http://www.w3.org/2000/svg">
<path fill-rule="evenodd" clip-rule="evenodd" d="M61.2311 0H56V21H76V14.7689L61.2311 0ZM56 26H76V83C76 85.7614 73.7614 88 71 88H5C2.23858 88 0 85.7614 0 83V5C0 2.23858 2.23858 0 5 0H51V21V26H56Z" fill="#B0BFCA"/>
<path d="M34.791 68.958L30.0254 67.5752C29.5254 67.4346 29.2441 66.9112 29.3848 66.4112L40.0488 29.6768C40.1895 29.1768 40.7129 28.8955 41.2129 29.0362L45.9785 30.419C46.4785 30.5596 46.7598 31.083 46.6191 31.583L35.9551 68.3174C35.8066 68.8174 35.291 69.1065 34.791 68.958ZM25.8848 60.1924L29.2832 56.5674C29.6426 56.1846 29.6191 55.5752 29.2207 55.2237L22.1426 48.9971L29.2207 42.7705C29.6191 42.419 29.6504 41.8096 29.2832 41.4268L25.8848 37.8018C25.5332 37.4268 24.9395 37.4033 24.5566 37.7627L13.2988 48.3096C12.9004 48.6768 12.9004 49.3096 13.2988 49.6768L24.5566 60.2315C24.9395 60.5908 25.5332 60.5752 25.8848 60.1924ZM51.4473 60.2393L62.7051 49.6846C63.1035 49.3174 63.1035 48.6846 62.7051 48.3174L51.4473 37.7549C51.0723 37.4033 50.4785 37.419 50.1191 37.794L46.7207 41.419C46.3613 41.8018 46.3848 42.4112 46.7832 42.7627L53.8613 48.9971L46.7832 55.2237C46.3848 55.5752 46.3535 56.1846 46.7207 56.5674L50.1191 60.1924C50.4707 60.5752 51.0644 60.5908 51.4473 60.2393Z" fill="#F6AE2D"/>
<path d="M15.486 73.722V70.86H20.472V84H17.268V73.722H15.486ZM22.5776 77.25C22.5776 75.186 22.9736 73.56 23.7656 72.372C24.5696 71.184 25.8596 70.59 27.6356 70.59C29.4116 70.59 30.6956 71.184 31.4876 72.372C32.2916 73.56 32.6936 75.186 32.6936 77.25C32.6936 79.338 32.2916 80.976 31.4876 82.164C30.6956 83.352 29.4116 83.946 27.6356 83.946C25.8596 83.946 24.5696 83.352 23.7656 82.164C22.9736 80.976 22.5776 79.338 22.5776 77.25ZM29.6696 77.25C29.6696 76.038 29.5376 75.108 29.2736 74.46C29.0096 73.8 28.4636 73.47 27.6356 73.47C26.8076 73.47 26.2616 73.8 25.9976 74.46C25.7336 75.108 25.6016 76.038 25.6016 77.25C25.6016 78.066 25.6496 78.744 25.7456 79.284C25.8416 79.812 26.0336 80.244 26.3216 80.58C26.6216 80.904 27.0596 81.066 27.6356 81.066C28.2116 81.066 28.6436 80.904 28.9316 80.58C29.2316 80.244 29.4296 79.812 29.5256 79.284C29.6216 78.744 29.6696 78.066 29.6696 77.25ZM34.3198 77.25C34.3198 75.186 34.7158 73.56 35.5078 72.372C36.3118 71.184 37.6018 70.59 39.3778 70.59C41.1538 70.59 42.4378 71.184 43.2298 72.372C44.0338 73.56 44.4358 75.186 44.4358 77.25C44.4358 79.338 44.0338 80.976 43.2298 82.164C42.4378 83.352 41.1538 83.946 39.3778 83.946C37.6018 83.946 36.3118 83.352 35.5078 82.164C34.7158 80.976 34.3198 79.338 34.3198 77.25ZM41.4118 77.25C41.4118 76.038 41.2798 75.108 41.0158 74.46C40.7518 73.8 40.2058 73.47 39.3778 73.47C38.5498 73.47 38.0038 73.8 37.7398 74.46C37.4758 75.108 37.3438 76.038 37.3438 77.25C37.3438 78.066 37.3918 78.744 37.4878 79.284C37.5838 79.812 37.7758 80.244 38.0638 80.58C38.3638 80.904 38.8018 81.066 39.3778 81.066C39.9538 81.066 40.3858 80.904 40.6738 80.58C40.9738 80.244 41.1718 79.812 41.2678 79.284C41.3638 78.744 41.4118 78.066 41.4118 77.25ZM45.81 74.172C45.81 73.2 46.086 72.45 46.638 71.922C47.202 71.394 47.928 71.13 48.816 71.13C49.704 71.13 50.424 71.394 50.976 71.922C51.528 72.45 51.804 73.2 51.804 74.172C51.804 75.144 51.528 75.894 50.976 76.422C50.424 76.95 49.704 77.214 48.816 77.214C47.928 77.214 47.202 76.95 46.638 76.422C46.086 75.894 45.81 75.144 45.81 74.172ZM58.032 71.328L51.102 84H48.132L55.062 71.328H58.032ZM48.798 72.93C48.222 72.93 47.934 73.344 47.934 74.172C47.934 74.988 48.222 75.396 48.798 75.396C49.074 75.396 49.29 75.294 49.446 75.09C49.602 74.886 49.68 74.58 49.68 74.172C49.68 73.344 49.386 72.93 48.798 72.93ZM54.378 81.156C54.378 80.184 54.654 79.434 55.206 78.906C55.758 78.378 56.478 78.114 57.366 78.114C58.254 78.114 58.974 78.378 59.526 78.906C60.078 79.434 60.354 80.184 60.354 81.156C60.354 82.128 60.078 82.878 59.526 83.406C58.974 83.934 58.254 84.198 57.366 84.198C56.478 84.198 55.758 83.934 55.206 83.406C54.654 82.878 54.378 82.128 54.378 81.156ZM57.348 79.914C57.072 79.914 56.856 80.016 56.7 80.22C56.556 80.424 56.484 80.736 56.484 81.156C56.484 81.972 56.772 82.38 57.348 82.38C57.624 82.38 57.84 82.278 57.996 82.074C58.152 81.87 58.23 81.564 58.23 81.156C58.23 80.748 58.152 80.442 57.996 80.238C57.84 80.022 57.624 79.914 57.348 79.914Z" fill="#F6AE2D"/>
</svg>
