<svg width="60" height="54" viewBox="0 0 60 54" fill="none" xmlns="http://www.w3.org/2000/svg">
<path d="M56.25 15.75H3.75C1.67895 15.75 0 14.0711 0 12V4.5C0 2.42895 1.67895 0.75 3.75 0.75H56.25C58.3211 0.75 60 2.42895 60 4.5V12C60 14.0711 58.3211 15.75 56.25 15.75ZM50.625 5.4375C49.0717 5.4375 47.8125 6.69668 47.8125 8.25C47.8125 9.80332 49.0717 11.0625 50.625 11.0625C52.1783 11.0625 53.4375 9.80332 53.4375 8.25C53.4375 6.69668 52.1783 5.4375 50.625 5.4375ZM43.125 5.4375C41.5717 5.4375 40.3125 6.69668 40.3125 8.25C40.3125 9.80332 41.5717 11.0625 43.125 11.0625C44.6783 11.0625 45.9375 9.80332 45.9375 8.25C45.9375 6.69668 44.6783 5.4375 43.125 5.4375ZM56.25 34.5H3.75C1.67895 34.5 0 32.8211 0 30.75V23.25C0 21.1789 1.67895 19.5 3.75 19.5H56.25C58.3211 19.5 60 21.1789 60 23.25V30.75C60 32.8211 58.3211 34.5 56.25 34.5ZM50.625 24.1875C49.0717 24.1875 47.8125 25.4467 47.8125 27C47.8125 28.5533 49.0717 29.8125 50.625 29.8125C52.1783 29.8125 53.4375 28.5533 53.4375 27C53.4375 25.4467 52.1783 24.1875 50.625 24.1875ZM43.125 24.1875C41.5717 24.1875 40.3125 25.4467 40.3125 27C40.3125 28.5533 41.5717 29.8125 43.125 29.8125C44.6783 29.8125 45.9375 28.5533 45.9375 27C45.9375 25.4467 44.6783 24.1875 43.125 24.1875ZM56.25 53.25H3.75C1.67895 53.25 0 51.5711 0 49.5V42C0 39.9289 1.67895 38.25 3.75 38.25H56.25C58.3211 38.25 60 39.9289 60 42V49.5C60 51.5711 58.3211 53.25 56.25 53.25ZM50.625 42.9375C49.0717 42.9375 47.8125 44.1967 47.8125 45.75C47.8125 47.3033 49.0717 48.5625 50.625 48.5625C52.1783 48.5625 53.4375 47.3033 53.4375 45.75C53.4375 44.1967 52.1783 42.9375 50.625 42.9375ZM43.125 42.9375C41.5717 42.9375 40.3125 44.1967 40.3125 45.75C40.3125 47.3033 41.5717 48.5625 43.125 48.5625C44.6783 48.5625 45.9375 47.3033 45.9375 45.75C45.9375 44.1967 44.6783 42.9375 43.125 42.9375Z" fill="#F6AE2D"/>
</svg>
