<svg width="332" height="266" viewBox="0 0 332 266" fill="none" xmlns="http://www.w3.org/2000/svg">
<path d="M130.691 75.5048C126.964 76.5582 123.551 78.5071 120.75 81.1816C117.949 83.8562 115.844 87.1752 114.619 90.8494L80 194.703L85.4513 200.155L141.156 144.45C140.046 142.127 139.375 139.559 139.375 136.813C139.375 126.975 147.349 119 157.187 119C167.025 119 175 126.975 175 136.813C175 146.651 167.025 154.625 157.187 154.625C154.441 154.625 151.873 153.954 149.55 152.844L93.8454 208.549L99.2968 214L203.151 179.381C206.825 178.156 210.144 176.051 212.818 173.25C215.493 170.449 217.442 167.036 218.495 163.309L234.374 107.126L186.874 59.6258L130.691 75.5048ZM264.782 51.5248L242.475 29.2185C235.517 22.2605 224.232 22.2605 217.274 29.2185L196.289 50.2037L243.796 97.7109L264.782 76.7257C271.739 69.7677 271.739 58.4865 264.782 51.5248V51.5248Z" fill="#F6AE2D"/>
<path d="M306 188.5C310.833 102.5 262.2 -50 29 28" stroke="#B0BFCA" stroke-width="11" stroke-linecap="round"/>
<circle cx="81" cy="214" r="19.5" stroke="#F6AE2D" stroke-width="15"/>
<circle cx="27" cy="29" r="19.5" stroke="#F6AE2D" stroke-width="15"/>
<circle cx="305" cy="187" r="19.5" stroke="#F6AE2D" stroke-width="15"/>
<path d="M80 215C109 253.333 194.6 302.4 305 192" stroke="#B0BFCA" stroke-width="11" stroke-linecap="round"/>
</svg>
