<svg width="120" height="126" viewBox="0 0 120 126" fill="none" xmlns="http://www.w3.org/2000/svg">
<path d="M81.4113 39.8125C77.9032 18.1852 69.629 3 60 3C50.371 3 42.0968 18.1852 38.5887 39.8125H81.4113ZM36.7742 63.0625C36.7742 68.4391 37.0645 73.5977 37.5726 78.5625H82.4032C82.9113 73.5977 83.2016 68.4391 83.2016 63.0625C83.2016 57.6859 82.9113 52.5273 82.4032 47.5625H37.5726C37.0645 52.5273 36.7742 57.6859 36.7742 63.0625ZM115.331 39.8125C108.411 23.368 94.4032 10.6531 77.1048 5.51875C83.0081 13.7047 87.0726 26.032 89.2016 39.8125H115.331ZM42.871 5.51875C25.5968 10.6531 11.5645 23.368 4.66935 39.8125H30.7984C32.9032 26.032 36.9677 13.7047 42.871 5.51875V5.51875ZM117.919 47.5625H90.1694C90.6774 52.6484 90.9677 57.8555 90.9677 63.0625C90.9677 68.2695 90.6774 73.4766 90.1694 78.5625H117.895C119.226 73.5977 119.976 68.4391 119.976 63.0625C119.976 57.6859 119.226 52.5273 117.919 47.5625ZM29.0323 63.0625C29.0323 57.8555 29.3226 52.6484 29.8306 47.5625H2.08065C0.774194 52.5273 0 57.6859 0 63.0625C0 68.4391 0.774194 73.5977 2.08065 78.5625H29.8064C29.3226 73.4766 29.0323 68.2695 29.0323 63.0625V63.0625ZM38.5887 86.3125C42.0968 107.94 50.371 123.125 60 123.125C69.629 123.125 77.9032 107.94 81.4113 86.3125H38.5887ZM77.129 120.606C94.4032 115.472 108.435 102.757 115.355 86.3125H89.2258C87.0968 100.093 83.0323 112.42 77.129 120.606ZM4.66935 86.3125C11.5887 102.757 25.5968 115.472 42.8952 120.606C36.9919 112.42 32.9274 100.093 30.7984 86.3125H4.66935V86.3125Z" fill="#33658A" fill-opacity="0.3"/>
<path fill-rule="evenodd" clip-rule="evenodd" d="M11 74C8.79086 74 7 75.7909 7 78V121.8C7 124.009 8.79086 125.8 11 125.8H77C79.2091 125.8 81 124.009 81 121.8V78C81 75.7909 79.2091 74 77 74H11ZM13.96 76.22C11.7509 76.22 9.96 78.0109 9.96 80.22V119.58C9.96 121.789 11.7509 123.58 13.96 123.58H68.86C71.0691 123.58 72.86 121.789 72.86 119.58V80.22C72.86 78.0109 71.0691 76.22 68.86 76.22H13.96Z" fill="#F6AE2D"/>
<circle cx="76.56" cy="99.9" r="1.72" fill="white" stroke="white"/>
<path fill-rule="evenodd" clip-rule="evenodd" d="M112.857 78C112.857 75.7909 111.066 74 108.857 74H94C91.7909 74 90 75.7909 90 78L90 120C90 122.209 91.7909 124 94 124H108.857C111.066 124 112.857 122.209 112.857 120L112.857 78ZM111.429 80.1429C111.429 77.9337 109.638 76.1429 107.429 76.1429L95.4286 76.1429C93.2194 76.1429 91.4286 77.9337 91.4286 80.1429L91.4286 112.143C91.4286 114.352 93.2194 116.143 95.4286 116.143H107.429C109.638 116.143 111.429 114.352 111.429 112.143L111.429 80.1429Z" fill="#F6AE2D"/>
<circle cx="101.429" cy="119.714" r="1.64286" fill="white" stroke="white"/>
<rect x="58.5405" y="60.3243" width="16.7568" height="4.18919" fill="#F6AE2D"/>
<path d="M25.527 64.1757H107.473V64.7027C107.473 66.6357 105.906 68.2027 103.973 68.2027H29.027C27.094 68.2027 25.527 66.6357 25.527 64.7027V64.1757Z" stroke="#F6AE2D"/>
<path fill-rule="evenodd" clip-rule="evenodd" d="M24 0C21.7909 0 20 1.79086 20 4V56.3243C20 58.5335 21.7909 60.3243 24 60.3243H109C111.209 60.3243 113 58.5335 113 56.3243V4C113 1.79086 111.209 0 109 0H24ZM107.135 4.18919H25.8649V56.1351H107.135V4.18919Z" fill="#F6AE2D"/>
</svg>
