<svg width="86" height="85" viewBox="0 0 86 85" fill="none" xmlns="http://www.w3.org/2000/svg">
<path d="M41.243 18.1207L28.6794 23.335V2.01547L18.4528 37.2029L28.6794 32.7282V56.8213L41.243 18.1207V18.1207ZM25.6881 0.240376L25.445 1.10943L22.6033 10.8909C15.0688 13.7569 9.72184 20.9867 9.72184 29.4369C9.72184 39.1074 16.1345 47.1693 25.3142 48.9444V58.8553C10.7501 56.9138 0 44.3957 0 29.4554C0 14.5705 11.1801 2.23735 25.6881 0.240376V0.240376ZM83.9069 82.9299C81.813 85.0009 79.5882 85.2043 78.5599 84.8714C77.5504 84.5386 73.4934 81.1918 67.2676 76.6616C61.0419 72.113 60.9858 70.0605 59.2284 66.1775C57.471 62.313 53.5449 58.3006 48.4783 56.4885L46.6648 53.7704C42.0469 56.8953 36.756 58.7443 31.4651 59.0772L31.8577 57.8568L34.8304 48.704C43.5239 46.5036 49.9553 38.7191 49.9553 29.4369C49.9553 19.3596 42.7761 10.5581 32.0073 9.63355V0C47.5622 0.943016 59.8267 13.7754 59.8267 29.4554C59.8267 35.6682 57.7328 41.4187 54.4049 46.1708L57.1345 47.9459C58.9667 52.9568 63.0237 56.8213 66.9311 58.5594C70.8385 60.2975 72.9512 60.353 77.5503 66.5104C82.1495 72.6492 85.5335 76.6616 85.87 77.6601C86.2065 78.6586 86.0009 80.859 83.9069 82.9299V82.9299ZM82.056 79.6201C82.056 78.8065 81.383 78.1409 80.5604 78.1409C79.7378 78.1409 79.0647 78.8065 79.0647 79.6201C79.0647 80.4337 79.7378 81.0994 80.5604 81.0994C81.383 81.0994 82.056 80.4337 82.056 79.6201Z" fill="#F6AE2D"/>
</svg>
