<svg width="232" height="209" viewBox="0 0 232 209" fill="none" xmlns="http://www.w3.org/2000/svg">
<rect x="37.2839" y="7.7475" width="187.216" height="152.73" stroke="#B0BFCA" stroke-width="15"/>
<path d="M73.347 126.349L73.5323 126.569L73.8156 126.52C76.6423 126.025 79.636 126.971 81.6117 129.316C83.5873 131.661 84.0123 134.772 83.0446 137.476L82.9477 137.747L83.133 137.966L96.7034 154.073C97.0511 154.486 97.5294 155.389 97.6135 156.432C97.6952 157.445 97.4081 158.591 96.233 159.581C95.554 160.152 94.7009 160.475 93.8139 160.498L93.8258 160.969L93.8139 160.498L78.8158 160.878L78.8156 160.878C71.1726 161.074 63.7442 163.894 57.8982 168.819L54.9396 171.312L54.6477 171.558L54.808 171.904C55.4371 173.264 56.2375 174.571 57.2554 175.779C59.9101 178.93 63.4176 180.949 67.1586 181.783C70.2328 182.469 71.1527 186.477 68.7047 188.539L60.8783 195.133C59.7568 196.078 58.1992 196.362 56.897 195.782C52.2641 193.72 48.0146 190.627 44.5348 186.497C43.5864 185.371 42.7362 184.196 41.9628 182.985L41.6557 182.504L41.2193 182.872L37.6685 185.863C34.1551 188.823 28.9086 188.375 25.9485 184.862L17.4265 174.747C14.4663 171.233 14.9147 165.987 18.4281 163.027L38.6577 145.983C44.5037 141.057 48.5428 134.215 50.0343 126.715L50.0343 126.715L52.9542 111.999L52.9543 111.999C53.1299 111.11 53.6028 110.331 54.2679 109.771C55.4457 108.778 56.6319 108.7 57.6228 108.959C58.6431 109.227 59.4502 109.855 59.7765 110.242L73.347 126.349ZM84.4459 152.916L85.4859 152.89L84.8156 152.094L59.7076 122.294L59.0373 121.498L58.8347 122.518L57.6996 128.238C55.8671 137.472 50.8907 145.898 43.6948 151.961L43.3124 152.283L43.6346 152.666L52.1566 162.78L52.4788 163.163L52.8611 162.841C60.057 156.778 69.2056 153.304 78.6166 153.064L84.4459 152.916Z" fill="#F6AE2D" stroke="#F6AE2D"/>
<path d="M80 35H72.3636C68.9882 35 65.7509 36.2906 63.3641 38.5879C60.9773 40.8853 59.6364 44.0011 59.6364 47.25V54.6H52V64.4H59.6364V84H69.8182V64.4H77.4545L80 54.6H69.8182V47.25C69.8182 46.6002 70.0864 45.9771 70.5637 45.5176C71.0411 45.0581 71.6885 44.8 72.3636 44.8H80V35Z" fill="#F6AE2D"/>
<path d="M212.401 112.829C210.264 114.154 207.927 115.125 205.481 115.705C204.28 114.145 202.629 112.992 200.75 112.401C198.872 111.811 196.858 111.811 194.98 112.402C193.102 112.994 191.451 114.148 190.251 115.708C189.05 117.268 188.357 119.16 188.267 121.126L188.139 123.268C184.37 123.141 180.691 122.084 177.429 120.191C174.167 118.298 171.424 115.628 169.444 112.418C169.444 112.418 159.73 131.181 178.492 140.895C173.904 143.626 168.56 144.814 163.247 144.285C181.882 156.14 206.076 146.837 207.543 122.211C207.577 121.614 207.555 121.016 207.478 120.423C209.792 118.398 211.497 115.769 212.401 112.829V112.829Z" fill="#F6AE2D"/>
<rect x="74.4392" y="109.285" width="14.7894" height="3.36091" rx="1.68046" transform="rotate(-75 74.4392 109.285)" fill="#F6AE2D"/>
<rect x="85.0129" y="124.899" width="14.7894" height="3.36091" rx="1.68046" transform="rotate(-46.5189 85.0129 124.899)" fill="#F6AE2D"/>
<rect x="97.1892" y="140.746" width="14.7894" height="3.36091" rx="1.68046" transform="rotate(-16.1763 97.1892 140.746)" fill="#F6AE2D"/>
<path d="M121.519 31.4564C114.846 31.4564 109.464 36.8396 109.464 43.5135C109.464 50.1874 114.846 55.5706 121.519 55.5706C128.191 55.5706 133.573 50.1874 133.573 43.5135C133.573 36.8396 128.191 31.4564 121.519 31.4564ZM121.519 51.3522C117.207 51.3522 113.682 47.8369 113.682 43.5135C113.682 39.1902 117.196 35.6748 121.519 35.6748C125.841 35.6748 129.356 39.1902 129.356 43.5135C129.356 47.8369 125.831 51.3522 121.519 51.3522V51.3522ZM136.878 30.9632C136.878 32.5267 135.619 33.7755 134.066 33.7755C132.503 33.7755 131.255 32.5162 131.255 30.9632C131.255 29.4101 132.514 28.1509 134.066 28.1509C135.619 28.1509 136.878 29.4101 136.878 30.9632ZM144.862 33.8174C144.683 30.0502 143.823 26.7133 141.064 23.964C138.315 21.2146 134.979 20.3542 131.213 20.1653C127.331 19.9449 115.696 19.9449 111.814 20.1653C108.058 20.3437 104.722 21.2041 101.963 23.9535C99.2039 26.7028 98.3541 30.0397 98.1652 33.8069C97.9449 37.6896 97.9449 49.327 98.1652 53.2096C98.3436 56.9768 99.2039 60.3138 101.963 63.0631C104.722 65.8124 108.048 66.6729 111.814 66.8618C115.696 67.0821 127.331 67.0821 131.213 66.8618C134.979 66.6834 138.315 65.8229 141.064 63.0631C143.813 60.3138 144.673 56.9768 144.862 53.2096C145.082 49.327 145.082 37.7001 144.862 33.8174V33.8174ZM139.847 57.3755C139.029 59.4323 137.444 61.0168 135.378 61.8458C132.283 63.0736 124.939 62.7902 121.519 62.7902C118.099 62.7902 110.744 63.0631 107.66 61.8458C105.604 61.0273 104.019 59.4428 103.191 57.3755C101.963 54.2799 102.246 46.9344 102.246 43.5135C102.246 40.0926 101.974 32.7366 103.191 29.6515C104.009 27.5947 105.593 26.0102 107.66 25.1812C110.755 23.9535 118.099 24.2368 121.519 24.2368C124.939 24.2368 132.293 23.964 135.378 25.1812C137.434 25.9997 139.018 27.5842 139.847 29.6515C141.074 32.7471 140.791 40.0926 140.791 43.5135C140.791 46.9344 141.074 54.2904 139.847 57.3755Z" fill="#F6AE2D"/>
<path d="M151.044 110.446C150.504 112.377 148.91 113.898 146.887 114.414C143.219 115.351 128.514 115.351 128.514 115.351C128.514 115.351 113.808 115.351 110.14 114.414C108.117 113.897 106.524 112.377 105.983 110.446C105 106.946 105 99.644 105 99.644C105 99.644 105 92.3419 105.983 88.8421C106.524 86.9112 108.117 85.4539 110.14 84.9378C113.808 84 128.514 84 128.514 84C128.514 84 143.219 84 146.887 84.9378C148.91 85.4539 150.504 86.9112 151.044 88.8421C152.027 92.3419 152.027 99.644 152.027 99.644C152.027 99.644 152.027 106.946 151.044 110.446V110.446ZM123.704 93.0143V106.274L135.995 99.6439L123.704 93.0143V93.0143Z" fill="#F6AE2D"/>
<path d="M206.892 65.9459C206.892 78.0693 197.069 87.8919 184.946 87.8919C182.681 87.8919 180.504 87.5468 178.451 86.9096C179.344 85.4495 180.681 83.0602 181.176 81.1577C181.442 80.1312 182.539 75.9367 182.539 75.9367C183.256 77.2994 185.344 78.4587 187.565 78.4587C194.184 78.4587 198.954 72.3704 198.954 64.8044C198.954 57.5569 193.034 52.1324 185.424 52.1324C175.955 52.1324 170.92 58.4861 170.92 65.415C170.92 68.6361 172.637 72.6448 175.371 73.919C175.787 74.1137 176.008 74.0252 176.106 73.627C176.176 73.3262 176.548 71.8306 176.716 71.1404C176.769 70.9192 176.743 70.7245 176.566 70.5121C175.672 69.406 174.946 67.3884 174.946 65.5035C174.946 60.663 178.61 55.9818 184.857 55.9818C190.247 55.9818 194.025 59.6542 194.025 64.9106C194.025 70.8484 191.025 74.9633 187.123 74.9633C184.972 74.9633 183.353 73.1846 183.875 70.9988C184.495 68.3883 185.689 65.5743 185.689 63.6894C185.689 62.0081 184.787 60.601 182.911 60.601C180.707 60.601 178.937 62.8753 178.937 65.9282C178.937 67.8751 179.592 69.1847 179.592 69.1847C179.592 69.1847 177.424 78.3702 177.026 80.0869C176.583 81.9806 176.76 84.6531 176.946 86.3875C168.787 83.193 163 75.2464 163 65.9459C163 53.8226 172.823 44 184.946 44C197.069 44 206.892 53.8226 206.892 65.9459Z" fill="#F6AE2D"/>
</svg>
