<svg width="128" height="155" viewBox="0 0 128 155" fill="none" xmlns="http://www.w3.org/2000/svg">
<rect width="128" height="155" rx="5" fill="#B0BFCA"/>
<rect x="7.5" y="20.5" width="111" height="8" stroke="#F6AE2D"/>
<rect x="7" y="32" width="112" height="37" fill="#F6AE2D"/>
<rect x="7.5" y="76.5" width="36" height="69" stroke="#F6AE2D"/>
<rect x="71.5" y="122.5" width="26" height="23" stroke="#F6AE2D"/>
<line x1="50" y1="75.5" x2="119" y2="75.5" stroke="#F6AE2D"/>
<line x1="50" y1="85.5" x2="119" y2="85.5" stroke="#F6AE2D"/>
<line x1="50" y1="95.5" x2="119" y2="95.5" stroke="#F6AE2D"/>
<line x1="50" y1="105.5" x2="119" y2="105.5" stroke="#F6AE2D"/>
<line x1="50" y1="115.5" x2="119" y2="115.5" stroke="#F6AE2D"/>
<rect y="6" width="128" height="8" fill="white"/>
<path d="M7.20605 11.3384L7.82129 9.3584H8.30469L7.24268 12.4077C7.07829 12.8472 6.81706 13.0669 6.45898 13.0669L6.37354 13.0596L6.20508 13.0278V12.6616L6.32715 12.6714C6.48014 12.6714 6.59896 12.6405 6.68359 12.5786C6.76986 12.5168 6.84066 12.4036 6.896 12.2393L6.99609 11.9707L6.05371 9.3584H6.54688L7.20605 11.3384ZM8.55127 10.6548C8.55127 10.396 8.60173 10.1632 8.70264 9.95654C8.80518 9.74984 8.94678 9.59033 9.12744 9.47803C9.30973 9.36572 9.51725 9.30957 9.75 9.30957C10.1097 9.30957 10.4002 9.43408 10.6216 9.68311C10.8446 9.93213 10.9561 10.2633 10.9561 10.6768V10.7085C10.9561 10.9657 10.9064 11.1968 10.8071 11.4019C10.7095 11.6053 10.5687 11.764 10.3848 11.8779C10.2025 11.9919 9.99251 12.0488 9.75488 12.0488C9.39681 12.0488 9.10628 11.9243 8.8833 11.6753C8.66195 11.4263 8.55127 11.0967 8.55127 10.6865V10.6548ZM9.00537 10.7085C9.00537 11.0015 9.07292 11.2367 9.20801 11.4141C9.34473 11.5915 9.52702 11.6802 9.75488 11.6802C9.98438 11.6802 10.1667 11.5907 10.3018 11.4116C10.4368 11.231 10.5044 10.9787 10.5044 10.6548C10.5044 10.3651 10.4352 10.1307 10.2969 9.95166C10.1602 9.771 9.97786 9.68066 9.75 9.68066C9.52702 9.68066 9.34717 9.76937 9.21045 9.94678C9.07373 10.1242 9.00537 10.3781 9.00537 10.7085ZM13.1533 11.7388C12.9775 11.9455 12.7196 12.0488 12.3794 12.0488C12.0978 12.0488 11.883 11.9674 11.7349 11.8047C11.5884 11.6403 11.5143 11.3978 11.5127 11.0771V9.3584H11.9644V11.0649C11.9644 11.4653 12.1271 11.6655 12.4526 11.6655C12.7977 11.6655 13.0272 11.5369 13.1411 11.2798V9.3584H13.5928V12H13.1631L13.1533 11.7388ZM15.5581 9.76367C15.4897 9.75228 15.4157 9.74658 15.3359 9.74658C15.0397 9.74658 14.8387 9.87272 14.7329 10.125V12H14.2812V9.3584H14.7207L14.728 9.66357C14.8761 9.42757 15.0861 9.30957 15.3579 9.30957C15.4458 9.30957 15.5125 9.32096 15.5581 9.34375V9.76367ZM18.3584 11.3774L18.8662 9.3584H19.3179L18.5488 12H18.1826L17.5405 9.99805L16.9155 12H16.5493L15.7827 9.3584H16.2319L16.752 11.3359L17.3672 9.3584H17.731L18.3584 11.3774ZM20.8755 12.0488C20.5174 12.0488 20.2261 11.9316 20.0015 11.6973C19.7769 11.4613 19.6646 11.1463 19.6646 10.7524V10.6694C19.6646 10.4074 19.7142 10.1738 19.8135 9.96875C19.9144 9.76204 20.0544 9.60091 20.2334 9.48535C20.4141 9.36816 20.6094 9.30957 20.8193 9.30957C21.1628 9.30957 21.4297 9.42269 21.6201 9.64893C21.8105 9.87516 21.9058 10.1991 21.9058 10.6206V10.8086H20.1162C20.1227 11.069 20.1984 11.2798 20.3433 11.4409C20.4897 11.6004 20.6753 11.6802 20.8999 11.6802C21.0594 11.6802 21.1945 11.6476 21.3052 11.5825C21.4159 11.5174 21.5127 11.4312 21.5957 11.3237L21.8716 11.5386C21.6502 11.8787 21.3182 12.0488 20.8755 12.0488ZM20.8193 9.68066C20.637 9.68066 20.484 9.7474 20.3604 9.88086C20.2367 10.0127 20.1602 10.1982 20.1309 10.4375H21.4541V10.4033C21.4411 10.1738 21.3792 9.99642 21.2686 9.87109C21.1579 9.74414 21.0081 9.68066 20.8193 9.68066ZM24.667 10.7085C24.667 11.1121 24.5742 11.4368 24.3887 11.6826C24.2031 11.9268 23.9541 12.0488 23.6416 12.0488C23.3079 12.0488 23.05 11.9308 22.8677 11.6948L22.8457 12H22.4307V8.25H22.8823V9.64893C23.0646 9.42269 23.3161 9.30957 23.6367 9.30957C23.9574 9.30957 24.2088 9.43083 24.3911 9.67334C24.575 9.91585 24.667 10.2479 24.667 10.6694V10.7085ZM24.2153 10.6572C24.2153 10.3496 24.1559 10.112 24.0371 9.94434C23.9183 9.77669 23.7474 9.69287 23.5244 9.69287C23.2266 9.69287 23.0125 9.83122 22.8823 10.1079V11.2505C23.0207 11.5272 23.2363 11.6655 23.5293 11.6655C23.7458 11.6655 23.9142 11.5817 24.0347 11.4141C24.1551 11.2464 24.2153 10.9941 24.2153 10.6572ZM26.7764 11.2993C26.7764 11.1772 26.73 11.0828 26.6372 11.0161C26.5461 10.9478 26.3857 10.8892 26.1562 10.8403C25.9284 10.7915 25.7469 10.7329 25.6118 10.6646C25.4784 10.5962 25.3791 10.5148 25.314 10.4204C25.2505 10.326 25.2188 10.2137 25.2188 10.0835C25.2188 9.86702 25.3099 9.68392 25.4922 9.53418C25.6761 9.38444 25.9105 9.30957 26.1953 9.30957C26.4948 9.30957 26.7373 9.38688 26.9229 9.5415C27.11 9.69613 27.2036 9.89388 27.2036 10.1348H26.7495C26.7495 10.0111 26.6966 9.90446 26.5908 9.81494C26.4867 9.72542 26.3548 9.68066 26.1953 9.68066C26.0309 9.68066 25.9023 9.71647 25.8096 9.78809C25.7168 9.8597 25.6704 9.95329 25.6704 10.0688C25.6704 10.1779 25.7135 10.2601 25.7998 10.3154C25.8861 10.3708 26.0415 10.4237 26.2661 10.4741C26.4924 10.5246 26.6755 10.5848 26.8154 10.6548C26.9554 10.7248 27.0588 10.8094 27.1255 10.9087C27.1938 11.0063 27.228 11.126 27.228 11.2676C27.228 11.5036 27.1336 11.6932 26.9448 11.8364C26.756 11.978 26.5111 12.0488 26.21 12.0488C25.9984 12.0488 25.8112 12.0114 25.6484 11.9365C25.4857 11.8617 25.3579 11.7575 25.2651 11.624C25.174 11.4889 25.1284 11.3433 25.1284 11.187H25.5801C25.5882 11.3384 25.6484 11.4588 25.7607 11.5483C25.8747 11.6362 26.0244 11.6802 26.21 11.6802C26.3809 11.6802 26.5176 11.646 26.6201 11.5776C26.7243 11.5076 26.7764 11.4149 26.7764 11.2993ZM28.3071 12H27.8555V9.3584H28.3071V12ZM27.8188 8.65771C27.8188 8.58447 27.8408 8.52262 27.8848 8.47217C27.9303 8.42171 27.9971 8.39648 28.085 8.39648C28.1729 8.39648 28.2396 8.42171 28.2852 8.47217C28.3307 8.52262 28.3535 8.58447 28.3535 8.65771C28.3535 8.73096 28.3307 8.79199 28.2852 8.84082C28.2396 8.88965 28.1729 8.91406 28.085 8.91406C27.9971 8.91406 27.9303 8.88965 27.8848 8.84082C27.8408 8.79199 27.8188 8.73096 27.8188 8.65771ZM29.645 8.71875V9.3584H30.1382V9.70752H29.645V11.3457C29.645 11.4515 29.667 11.5312 29.7109 11.585C29.7549 11.637 29.8298 11.6631 29.9355 11.6631C29.9876 11.6631 30.0592 11.6533 30.1504 11.6338V12C30.0316 12.0326 29.916 12.0488 29.8037 12.0488C29.6019 12.0488 29.4497 11.9878 29.3472 11.8657C29.2446 11.7437 29.1934 11.5703 29.1934 11.3457V9.70752H28.7124V9.3584H29.1934V8.71875H29.645ZM31.7642 12.0488C31.4061 12.0488 31.1147 11.9316 30.8901 11.6973C30.6655 11.4613 30.5532 11.1463 30.5532 10.7524V10.6694C30.5532 10.4074 30.6029 10.1738 30.7021 9.96875C30.8031 9.76204 30.943 9.60091 31.1221 9.48535C31.3027 9.36816 31.498 9.30957 31.708 9.30957C32.0514 9.30957 32.3184 9.42269 32.5088 9.64893C32.6992 9.87516 32.7944 10.1991 32.7944 10.6206V10.8086H31.0049C31.0114 11.069 31.0871 11.2798 31.2319 11.4409C31.3784 11.6004 31.564 11.6802 31.7886 11.6802C31.9481 11.6802 32.0832 11.6476 32.1938 11.5825C32.3045 11.5174 32.4014 11.4312 32.4844 11.3237L32.7603 11.5386C32.5389 11.8787 32.2069 12.0488 31.7642 12.0488ZM31.708 9.68066C31.5257 9.68066 31.3727 9.7474 31.249 9.88086C31.1253 10.0127 31.0488 10.1982 31.0195 10.4375H32.3428V10.4033C32.3298 10.1738 32.2679 9.99642 32.1572 9.87109C32.0465 9.74414 31.8968 9.68066 31.708 9.68066ZM33.3291 11.7632C33.3291 11.6851 33.3519 11.62 33.3975 11.5679C33.4447 11.5158 33.5146 11.4897 33.6074 11.4897C33.7002 11.4897 33.7702 11.5158 33.8174 11.5679C33.8662 11.62 33.8906 11.6851 33.8906 11.7632C33.8906 11.8381 33.8662 11.9007 33.8174 11.9512C33.7702 12.0016 33.7002 12.0269 33.6074 12.0269C33.5146 12.0269 33.4447 12.0016 33.3975 11.9512C33.3519 11.9007 33.3291 11.8381 33.3291 11.7632ZM35.0894 9.67822C35.2896 9.43245 35.55 9.30957 35.8706 9.30957C36.4289 9.30957 36.7104 9.62451 36.7153 10.2544V12H36.2637V10.252C36.262 10.0615 36.2181 9.92074 36.1318 9.82959C36.0472 9.73844 35.9146 9.69287 35.7339 9.69287C35.5874 9.69287 35.4588 9.73193 35.3481 9.81006C35.2375 9.88818 35.1512 9.99072 35.0894 10.1177V12H34.6377V8.25H35.0894V9.67822ZM38.4878 12.0488C38.1297 12.0488 37.8384 11.9316 37.6138 11.6973C37.3892 11.4613 37.2769 11.1463 37.2769 10.7524V10.6694C37.2769 10.4074 37.3265 10.1738 37.4258 9.96875C37.5267 9.76204 37.6667 9.60091 37.8457 9.48535C38.0264 9.36816 38.2217 9.30957 38.4316 9.30957C38.7751 9.30957 39.042 9.42269 39.2324 9.64893C39.4229 9.87516 39.5181 10.1991 39.5181 10.6206V10.8086H37.7285C37.735 11.069 37.8107 11.2798 37.9556 11.4409C38.1021 11.6004 38.2876 11.6802 38.5122 11.6802C38.6717 11.6802 38.8068 11.6476 38.9175 11.5825C39.0282 11.5174 39.125 11.4312 39.208 11.3237L39.4839 11.5386C39.2625 11.8787 38.9305 12.0488 38.4878 12.0488ZM38.4316 9.68066C38.2493 9.68066 38.0964 9.7474 37.9727 9.88086C37.849 10.0127 37.7725 10.1982 37.7432 10.4375H39.0664V10.4033C39.0534 10.1738 38.9915 9.99642 38.8809 9.87109C38.7702 9.74414 38.6204 9.68066 38.4316 9.68066ZM41.3198 9.76367C41.2515 9.75228 41.1774 9.74658 41.0977 9.74658C40.8014 9.74658 40.6004 9.87272 40.4946 10.125V12H40.043V9.3584H40.4824L40.4897 9.66357C40.6379 9.42757 40.8478 9.30957 41.1196 9.30957C41.2075 9.30957 41.2743 9.32096 41.3198 9.34375V9.76367ZM42.7847 12.0488C42.4266 12.0488 42.1353 11.9316 41.9106 11.6973C41.686 11.4613 41.5737 11.1463 41.5737 10.7524V10.6694C41.5737 10.4074 41.6234 10.1738 41.7227 9.96875C41.8236 9.76204 41.9635 9.60091 42.1426 9.48535C42.3232 9.36816 42.5186 9.30957 42.7285 9.30957C43.0719 9.30957 43.3389 9.42269 43.5293 9.64893C43.7197 9.87516 43.8149 10.1991 43.8149 10.6206V10.8086H42.0254C42.0319 11.069 42.1076 11.2798 42.2524 11.4409C42.3989 11.6004 42.5845 11.6802 42.8091 11.6802C42.9686 11.6802 43.1037 11.6476 43.2144 11.5825C43.325 11.5174 43.4219 11.4312 43.5049 11.3237L43.7808 11.5386C43.5594 11.8787 43.2274 12.0488 42.7847 12.0488ZM42.7285 9.68066C42.5462 9.68066 42.3932 9.7474 42.2695 9.88086C42.1458 10.0127 42.0693 10.1982 42.04 10.4375H43.3633V10.4033C43.3503 10.1738 43.2884 9.99642 43.1777 9.87109C43.0671 9.74414 42.9173 9.68066 42.7285 9.68066Z" fill="black"/>
</svg>
